<?xml version="1.0" encoding="UTF-8" standalone="no"?>
<!-- Created with Inkscape (http://www.inkscape.org/) -->
<svg
   xmlns:svg="http://www.w3.org/2000/svg"
   xmlns="http://www.w3.org/2000/svg"
   version="1.0"
   width="500"
   height="500"
   id="svg2">
  <defs
     id="defs4" />
  <g
     id="layer1">
    <rect
       width="95.985794"
       height="95.985809"
       x="9.955142"
       y="10.24642"
       style="opacity:1;fill:#ffffff;fill-opacity:1;stroke:#000000;stroke-width:4.01420403;stroke-linecap:square;stroke-linejoin:miter;stroke-miterlimit:4;stroke-dasharray:none;stroke-opacity:1"
       id="rect1307" />
    <rect
       width="95.985794"
       height="95.985809"
       x="106.22705"
       y="10.296957"
       style="opacity:1;fill:#ffffff;fill-opacity:1;stroke:#000000;stroke-width:4.01420403;stroke-linecap:square;stroke-linejoin:miter;stroke-miterlimit:4;stroke-dasharray:none;stroke-opacity:1"
       id="rect2182" />
    <rect
       width="95.985794"
       height="95.985809"
       x="201.98499"
       y="10.275686"
       style="opacity:1;fill:#ffffff;fill-opacity:1;stroke:#000000;stroke-width:4.01420403;stroke-linecap:square;stroke-linejoin:miter;stroke-miterlimit:4;stroke-dasharray:none;stroke-opacity:1"
       id="rect2184" />
    <rect
       width="95.985794"
       height="95.985809"
       x="298.19434"
       y="10.29775"
       style="opacity:1;fill:#ffffff;fill-opacity:1;stroke:#000000;stroke-width:4.01420403;stroke-linecap:square;stroke-linejoin:miter;stroke-miterlimit:4;stroke-dasharray:none;stroke-opacity:1"
       id="rect2186" />
    <rect
       width="95.985794"
       height="95.985809"
       x="394.04141"
       y="10.272055"
       style="opacity:1;fill:#ffffff;fill-opacity:1;stroke:#000000;stroke-width:4.01420403;stroke-linecap:square;stroke-linejoin:miter;stroke-miterlimit:4;stroke-dasharray:none;stroke-opacity:1"
       id="rect2188" />
    <rect
       width="95.985794"
       height="95.985809"
       x="9.9675398"
       y="106.22356"
       style="opacity:1;fill:#ffffff;fill-opacity:1;stroke:#000000;stroke-width:4.01420403;stroke-linecap:square;stroke-linejoin:miter;stroke-miterlimit:4;stroke-dasharray:none;stroke-opacity:1"
       id="rect2190" />
    <rect
       width="95.985794"
       height="95.985809"
       x="106.23946"
       y="106.27409"
       style="opacity:1;fill:#ffffff;fill-opacity:1;stroke:#000000;stroke-width:4.01420403;stroke-linecap:square;stroke-linejoin:miter;stroke-miterlimit:4;stroke-dasharray:none;stroke-opacity:1"
       id="rect2192" />
    <rect
       width="95.985794"
       height="95.985809"
       x="201.99738"
       y="106.25282"
       style="opacity:1;fill:#ffffff;fill-opacity:1;stroke:#000000;stroke-width:4.01420403;stroke-linecap:square;stroke-linejoin:miter;stroke-miterlimit:4;stroke-dasharray:none;stroke-opacity:1"
       id="rect2194" />
    <rect
       width="95.985794"
       height="95.985809"
       x="298.20673"
       y="106.27489"
       style="opacity:1;fill:#ffffff;fill-opacity:1;stroke:#000000;stroke-width:4.01420403;stroke-linecap:square;stroke-linejoin:miter;stroke-miterlimit:4;stroke-dasharray:none;stroke-opacity:1"
       id="rect2196" />
    <rect
       width="95.985794"
       height="95.985809"
       x="394.05383"
       y="106.24919"
       style="opacity:1;fill:#ffffff;fill-opacity:1;stroke:#000000;stroke-width:4.01420403;stroke-linecap:square;stroke-linejoin:miter;stroke-miterlimit:4;stroke-dasharray:none;stroke-opacity:1"
       id="rect2198" />
    <rect
       width="95.985794"
       height="95.985809"
       x="9.9673796"
       y="202.11124"
       style="opacity:1;fill:#ffffff;fill-opacity:1;stroke:#000000;stroke-width:4.01420403;stroke-linecap:square;stroke-linejoin:miter;stroke-miterlimit:4;stroke-dasharray:none;stroke-opacity:1"
       id="rect2200" />
    <rect
       width="95.985794"
       height="95.985809"
       x="106.2393"
       y="202.16177"
       style="opacity:1;fill:#ffffff;fill-opacity:1;stroke:#000000;stroke-width:4.01420403;stroke-linecap:square;stroke-linejoin:miter;stroke-miterlimit:4;stroke-dasharray:none;stroke-opacity:1"
       id="rect2202" />
    <rect
       width="95.985794"
       height="95.985809"
       x="201.99722"
       y="202.14047"
       style="opacity:1;fill:#ffffff;fill-opacity:1;stroke:#000000;stroke-width:4.01420403;stroke-linecap:square;stroke-linejoin:miter;stroke-miterlimit:4;stroke-dasharray:none;stroke-opacity:1"
       id="rect2204" />
    <rect
       width="95.985794"
       height="95.985809"
       x="298.20657"
       y="202.16257"
       style="opacity:1;fill:#ffffff;fill-opacity:1;stroke:#000000;stroke-width:4.01420403;stroke-linecap:square;stroke-linejoin:miter;stroke-miterlimit:4;stroke-dasharray:none;stroke-opacity:1"
       id="rect2206" />
    <rect
       width="95.985794"
       height="95.985809"
       x="394.05368"
       y="202.13687"
       style="opacity:1;fill:#ffffff;fill-opacity:1;stroke:#000000;stroke-width:4.01420403;stroke-linecap:square;stroke-linejoin:miter;stroke-miterlimit:4;stroke-dasharray:none;stroke-opacity:1"
       id="rect2208" />
    <rect
       width="95.985794"
       height="95.985809"
       x="9.9797697"
       y="298.08835"
       style="opacity:1;fill:#ffffff;fill-opacity:1;stroke:#000000;stroke-width:4.01420403;stroke-linecap:square;stroke-linejoin:miter;stroke-miterlimit:4;stroke-dasharray:none;stroke-opacity:1"
       id="rect2210" />
    <rect
       width="95.985794"
       height="95.985809"
       x="106.25169"
       y="298.13889"
       style="opacity:1;fill:#ffffff;fill-opacity:1;stroke:#000000;stroke-width:4.01420403;stroke-linecap:square;stroke-linejoin:miter;stroke-miterlimit:4;stroke-dasharray:none;stroke-opacity:1"
       id="rect2212" />
    <rect
       width="95.985794"
       height="95.985809"
       x="202.00961"
       y="298.11765"
       style="opacity:1;fill:#ffffff;fill-opacity:1;stroke:#000000;stroke-width:4.01420403;stroke-linecap:square;stroke-linejoin:miter;stroke-miterlimit:4;stroke-dasharray:none;stroke-opacity:1"
       id="rect2214" />
    <rect
       width="95.985794"
       height="95.985809"
       x="298.21896"
       y="298.13968"
       style="opacity:1;fill:#ffffff;fill-opacity:1;stroke:#000000;stroke-width:4.01420403;stroke-linecap:square;stroke-linejoin:miter;stroke-miterlimit:4;stroke-dasharray:none;stroke-opacity:1"
       id="rect2216" />
    <rect
       width="95.985794"
       height="95.985809"
       x="394.06607"
       y="298.11398"
       style="opacity:1;fill:#ffffff;fill-opacity:1;stroke:#000000;stroke-width:4.01420403;stroke-linecap:square;stroke-linejoin:miter;stroke-miterlimit:4;stroke-dasharray:none;stroke-opacity:1"
       id="rect2218" />
    <rect
       width="95.985794"
       height="95.985809"
       x="9.9445143"
       y="393.93442"
       style="opacity:1;fill:#ffffff;fill-opacity:1;stroke:#000000;stroke-width:4.01420403;stroke-linecap:square;stroke-linejoin:miter;stroke-miterlimit:4;stroke-dasharray:none;stroke-opacity:1"
       id="rect2220" />
    <rect
       width="95.985794"
       height="95.985809"
       x="106.21645"
       y="393.98495"
       style="opacity:1;fill:#ffffff;fill-opacity:1;stroke:#000000;stroke-width:4.01420403;stroke-linecap:square;stroke-linejoin:miter;stroke-miterlimit:4;stroke-dasharray:none;stroke-opacity:1"
       id="rect2222" />
    <rect
       width="95.985794"
       height="95.985809"
       x="201.97437"
       y="393.96371"
       style="opacity:1;fill:#ffffff;fill-opacity:1;stroke:#000000;stroke-width:4.01420403;stroke-linecap:square;stroke-linejoin:miter;stroke-miterlimit:4;stroke-dasharray:none;stroke-opacity:1"
       id="rect2224" />
    <rect
       width="95.985794"
       height="95.985809"
       x="298.18375"
       y="393.98575"
       style="opacity:1;fill:#ffffff;fill-opacity:1;stroke:#000000;stroke-width:4.01420403;stroke-linecap:square;stroke-linejoin:miter;stroke-miterlimit:4;stroke-dasharray:none;stroke-opacity:1"
       id="rect2226" />
    <rect
       width="95.985794"
       height="95.985809"
       x="394.07462"
       y="394.06967"
       style="opacity:1;fill:#ffffff;fill-opacity:1;stroke:#000000;stroke-width:4.01420403;stroke-linecap:square;stroke-linejoin:miter;stroke-miterlimit:4;stroke-dasharray:none;stroke-opacity:1"
       id="rect2228" />
    <path
       d="M 80.295147,23.835676 L 80.295147,33.454817 C 76.551617,31.664515 73.019717,30.329881 69.699447,29.45091 C 66.379097,28.57207 63.172717,28.132617 60.080307,28.132551 C 54.709187,28.132617 50.558797,29.174283 47.629137,31.257551 C 44.731987,33.340945 43.283417,36.303182 43.283437,40.14427 C 43.283417,43.366977 44.243707,45.808381 46.164297,47.468488 C 48.117397,49.096138 51.795777,50.414496 57.199447,51.423567 L 63.156477,52.64427 C 70.513207,54.04405 75.933127,56.518005 79.416247,60.066145 C 82.931817,63.5818 84.689627,68.301848 84.689687,74.226301 C 84.689627,81.290116 82.313327,86.644928 77.560777,90.290754 C 72.840677,93.936588 65.907097,95.759503 56.759997,95.759504 C 53.309447,95.759503 49.631067,95.368878 45.724837,94.587629 C 41.851127,93.80638 37.830947,92.650782 33.664297,91.120832 L 33.664297,80.964582 C 37.668187,83.210687 41.590707,84.903394 45.431867,86.042707 C 49.272997,87.182037 53.049027,87.751698 56.759997,87.751692 C 62.391467,87.751698 66.737167,86.644928 69.797107,84.431379 C 72.856957,82.21785 74.386897,79.060301 74.386947,74.958723 C 74.386897,71.378017 73.280127,68.57854 71.066637,66.560285 C 68.885607,64.542086 65.288607,63.028416 60.275617,62.01927 L 54.269757,60.847395 C 46.912967,59.382586 41.590707,57.087666 38.302967,53.962629 C 35.015197,50.837673 33.371317,46.491974 33.371327,40.92552 C 33.371317,34.480267 35.633687,29.402147 40.158437,25.691145 C 44.715707,21.98028 50.981977,20.124813 58.957257,20.124738 C 62.375197,20.124813 65.858267,20.434057 69.406477,21.052473 C 72.954607,21.671035 76.584167,22.598769 80.295147,23.835676"
       id="flowRoot2240" />
    <path
       d="M 461.26464,407.22689 L 461.26464,416.84603 C 457.52111,415.05573 453.98921,413.72109 450.66894,412.84212 C 447.34859,411.96328 444.14221,411.52383 441.0498,411.52376 C 435.67868,411.52383 431.52829,412.5655 428.59863,414.64876 C 425.70148,416.73216 424.25291,419.69439 424.25293,423.53548 C 424.25291,426.75819 425.2132,429.19959 427.13379,430.8597 C 429.08689,432.48735 432.76527,433.80571 438.16894,434.81478 L 444.12597,436.03548 C 451.4827,437.43526 456.90262,439.90922 460.38574,443.45736 C 463.90131,446.97301 465.65912,451.69306 465.65918,457.61751 C 465.65912,464.68133 463.28282,470.03614 458.53027,473.68197 C 453.81017,477.3278 446.87659,479.15072 437.72949,479.15072 C 434.27894,479.15072 430.60056,478.76009 426.69433,477.97884 C 422.82062,477.19759 418.80044,476.04199 414.63379,474.51204 L 414.63379,464.35579 C 418.63768,466.6019 422.5602,468.29461 426.40136,469.43392 C 430.24249,470.57325 434.01852,471.14291 437.72949,471.1429 C 443.36096,471.14291 447.70666,470.03614 450.7666,467.82259 C 453.82645,465.60906 455.35639,462.45151 455.35644,458.34994 C 455.35639,454.76923 454.24962,451.96975 452.03613,449.9515 C 449.8551,447.9333 446.2581,446.41963 441.24511,445.41048 L 435.23925,444.23861 C 427.88246,442.7738 422.5602,440.47888 419.27246,437.35384 C 415.98469,434.22889 414.34081,429.88319 414.34082,424.31673 C 414.34081,417.87148 416.60318,412.79336 421.12793,409.08236 C 425.6852,405.37149 431.95147,403.51603 439.92675,403.51595 C 443.34469,403.51603 446.82776,403.82527 450.37597,404.44369 C 453.9241,405.06225 457.55366,405.98998 461.26464,407.22689"
       id="path2249" />
    <path
       d="M 59.513021,126.14974 L 46.134115,162.42903 L 72.940756,162.42903 L 59.513021,126.14974 M 53.946615,116.43294 L 65.128256,116.43294 L 92.911459,189.33333 L 82.657553,189.33333 L 76.016928,170.63216 L 43.1556,170.63216 L 36.514975,189.33333 L 26.114584,189.33333 L 53.946615,116.43294"
       style="font-size:48px;font-style:normal;font-variant:normal;font-weight:normal;font-stretch:normal;text-align:start;line-height:100%;writing-mode:lr-tb;text-anchor:start;fill:#000000;fill-opacity:1;stroke:none;stroke-width:1px;stroke-linecap:butt;stroke-linejoin:miter;stroke-opacity:1;font-family:Bitstream Vera Sans"
       id="text2251" />
    <path
       d="M 346.66667,414.59994 L 333.28776,450.87923 L 360.0944,450.87923 L 346.66667,414.59994 M 341.10026,404.88314 L 352.2819,404.88314 L 380.0651,477.78353 L 369.8112,477.78353 L 363.17057,459.08236 L 330.30925,459.08236 L 323.66862,477.78353 L 313.26823,477.78353 L 341.10026,404.88314"
       style="font-size:48px;font-style:normal;font-variant:normal;font-weight:normal;font-stretch:normal;text-align:start;line-height:100%;writing-mode:lr-tb;text-anchor:start;fill:#000000;fill-opacity:1;stroke:none;stroke-width:1px;stroke-linecap:butt;stroke-linejoin:miter;stroke-opacity:1;font-family:Bitstream Vera Sans"
       id="path2256" />
    <path
       d="M 441.33334,317.26661 L 427.95443,353.5459 L 454.76107,353.5459 L 441.33334,317.26661 M 435.76693,307.54981 L 446.94857,307.54981 L 474.73177,380.4502 L 464.47787,380.4502 L 457.83724,361.74903 L 424.97592,361.74903 L 418.33529,380.4502 L 407.9349,380.4502 L 435.76693,307.54981"
       style="font-size:48px;font-style:normal;font-variant:normal;font-weight:normal;font-stretch:normal;text-align:start;line-height:100%;writing-mode:lr-tb;text-anchor:start;fill:#000000;fill-opacity:1;stroke:none;stroke-width:1px;stroke-linecap:butt;stroke-linejoin:miter;stroke-opacity:1;font-family:Bitstream Vera Sans"
       id="path2258" />
    <path
       d="M 30.373697,213.76625 L 92.043619,213.76625 L 92.043619,222.06703 L 66.164713,222.06703 L 66.164713,286.66664 L 56.252604,286.66664 L 56.252604,222.06703 L 30.373697,222.06703 L 30.373697,213.76625"
       style="font-size:48px;font-style:normal;font-variant:normal;font-weight:normal;font-stretch:normal;text-align:start;line-height:100%;writing-mode:lr-tb;text-anchor:start;fill:#ff0000;fill-opacity:1;stroke:none;stroke-width:1px;stroke-linecap:butt;stroke-linejoin:miter;stroke-opacity:1;font-family:Bitstream Vera Sans"
       id="text2260" />
    <path
       d="M 214.49838,404.88313 L 276.1683,404.88313 L 276.1683,413.18392 L 250.28939,413.18392 L 250.28939,477.78353 L 240.37728,477.78353 L 240.37728,413.18392 L 214.49838,413.18392 L 214.49838,404.88313"
       style="font-size:48px;font-style:normal;font-variant:normal;font-weight:normal;font-stretch:normal;text-align:start;line-height:100%;writing-mode:lr-tb;text-anchor:start;fill:#ff0000;fill-opacity:1;stroke:none;stroke-width:1px;stroke-linecap:butt;stroke-linejoin:miter;stroke-opacity:1;font-family:Bitstream Vera Sans"
       id="path3138" />
    <path
       d="M 218.49837,20.883137 L 280.16829,20.883137 L 280.16829,29.183927 L 254.28938,29.183927 L 254.28938,93.783537 L 244.37727,93.783537 L 244.37727,29.183927 L 218.49837,29.183927 L 218.49837,20.883137"
       style="font-size:48px;font-style:normal;font-variant:normal;font-weight:normal;font-stretch:normal;text-align:start;line-height:100%;writing-mode:lr-tb;text-anchor:start;fill:#ff0000;fill-opacity:1;stroke:none;stroke-width:1px;stroke-linecap:butt;stroke-linejoin:miter;stroke-opacity:1;font-family:Bitstream Vera Sans"
       id="path3140" />
    <path
       d="M 413.16504,212.88314 L 474.83496,212.88314 L 474.83496,221.18393 L 448.95605,221.18393 L 448.95605,285.78354 L 439.04394,285.78354 L 439.04394,221.18393 L 413.16504,221.18393 L 413.16504,212.88314"
       style="font-size:48px;font-style:normal;font-variant:normal;font-weight:normal;font-stretch:normal;text-align:start;line-height:100%;writing-mode:lr-tb;text-anchor:start;fill:#ff0000;fill-opacity:1;stroke:none;stroke-width:1px;stroke-linecap:butt;stroke-linejoin:miter;stroke-opacity:1;font-family:Bitstream Vera Sans"
       id="path3142" />
    <path
       d="M 129.81447,213.76628 L 175.90822,213.76628 L 175.90822,222.06706 L 139.67775,222.06706 L 139.67775,243.6491 L 174.39454,243.6491 L 174.39454,251.94988 L 139.67775,251.94988 L 139.67775,278.36589 L 176.78712,278.36589 L 176.78712,286.66667 L 129.81447,286.66667 L 129.81447,213.76628"
       style="font-size:48px;font-style:normal;font-variant:normal;font-weight:normal;font-stretch:normal;text-align:start;line-height:100%;writing-mode:lr-tb;text-anchor:start;fill:#ff0000;fill-opacity:1;stroke:none;stroke-width:1px;stroke-linecap:butt;stroke-linejoin:miter;stroke-opacity:1;font-family:Bitstream Vera Sans"
       id="text3144" />
    <path
       d="M 224.51367,307.5498 L 270.60742,307.5498 L 270.60742,315.85058 L 234.37695,315.85058 L 234.37695,337.43262 L 269.09374,337.43262 L 269.09374,345.7334 L 234.37695,345.7334 L 234.37695,372.14941 L 271.48632,372.14941 L 271.48632,380.45019 L 224.51367,380.45019 L 224.51367,307.5498"
       style="font-size:48px;font-style:normal;font-variant:normal;font-weight:normal;font-stretch:normal;text-align:start;line-height:100%;writing-mode:lr-tb;text-anchor:start;fill:#ff0000;fill-opacity:1;stroke:none;stroke-width:1px;stroke-linecap:butt;stroke-linejoin:miter;stroke-opacity:1;font-family:Bitstream Vera Sans"
       id="path4022" />
    <path
       d="M 323.84701,212.88314 L 369.94076,212.88314 L 369.94076,221.18392 L 333.71029,221.18392 L 333.71029,242.76596 L 368.42708,242.76596 L 368.42708,251.06674 L 333.71029,251.06674 L 333.71029,277.48275 L 370.81966,277.48275 L 370.81966,285.78353 L 323.84701,285.78353 L 323.84701,212.88314"
       style="font-size:48px;font-style:normal;font-variant:normal;font-weight:normal;font-stretch:normal;text-align:start;line-height:100%;writing-mode:lr-tb;text-anchor:start;fill:#ff0000;fill-opacity:1;stroke:none;stroke-width:1px;stroke-linecap:butt;stroke-linejoin:miter;stroke-opacity:1;font-family:Bitstream Vera Sans"
       id="path4024" />
    <path
       d="M 228.51368,116.80226 L 274.60743,116.80226 L 274.60743,125.10304 L 238.37696,125.10304 L 238.37696,146.68508 L 273.09375,146.68508 L 273.09375,154.98586 L 238.37696,154.98586 L 238.37696,181.40187 L 275.48633,181.40187 L 275.48633,189.70265 L 228.51368,189.70265 L 228.51368,116.80226"
       style="font-size:48px;font-style:normal;font-variant:normal;font-weight:normal;font-stretch:normal;text-align:start;line-height:100%;writing-mode:lr-tb;text-anchor:start;fill:#ff0000;fill-opacity:1;stroke:none;stroke-width:1px;stroke-linecap:butt;stroke-linejoin:miter;stroke-opacity:1;font-family:Bitstream Vera Sans"
       id="path4026" />
    <path
       d="M 150,31.266603 L 136.62109,67.545893 L 163.42773,67.545893 L 150,31.266603 M 144.43359,21.549803 L 155.61523,21.549803 L 183.39843,94.450193 L 173.14453,94.450193 L 166.5039,75.749023 L 133.64258,75.749023 L 127.00195,94.450193 L 116.60156,94.450193 L 144.43359,21.549803"
       style="font-size:48px;font-style:normal;font-variant:normal;font-weight:normal;font-stretch:normal;text-align:start;line-height:100%;writing-mode:lr-tb;text-anchor:start;fill:#000000;fill-opacity:1;stroke:none;stroke-width:1px;stroke-linecap:butt;stroke-linejoin:miter;stroke-opacity:1;font-family:Bitstream Vera Sans"
       id="path4028" />
    <path
       d="M 68.384766,444.48697 C 70.500605,445.20315 72.551384,446.73309 74.537109,449.07681 C 76.555286,451.42059 78.573513,454.64324 80.591797,458.74478 L 90.601562,478.66666 L 80.005859,478.66666 L 70.679688,459.96548 C 68.270789,455.0827 65.927041,451.84377 63.648438,450.24869 C 61.402306,448.65367 58.326138,447.85614 54.419922,447.85611 L 43.677734,447.85611 L 43.677734,478.66666 L 33.814453,478.66666 L 33.814453,405.76627 L 56.080078,405.76627 C 64.413371,405.76634 70.630813,407.50787 74.732422,410.99088 C 78.83393,414.47401 80.884709,419.73117 80.884766,426.76236 C 80.884709,431.35225 79.810491,435.16084 77.662109,438.18814 C 75.546172,441.21552 72.453728,443.31513 68.384766,444.48697 M 43.677734,413.87173 L 43.677734,439.75064 L 56.080078,439.75064 C 60.832645,439.75068 64.413371,438.66019 66.822266,436.47916 C 69.263627,434.26566 70.484329,431.02673 70.484375,426.76236 C 70.484329,422.49809 69.263627,419.29172 66.822266,417.14322 C 64.413371,414.96229 60.832645,413.8718 56.080078,413.87173 L 43.677734,413.87173"
       style="font-size:48px;font-style:normal;font-variant:normal;font-weight:normal;font-stretch:normal;text-align:start;line-height:100%;writing-mode:lr-tb;text-anchor:start;fill:#000000;fill-opacity:1;stroke:none;stroke-width:1px;stroke-linecap:butt;stroke-linejoin:miter;stroke-opacity:1;font-family:Bitstream Vera Sans"
       id="text4030" />
    <path
       d="M 450.17676,59.994368 C 452.2926,60.710548 454.34338,62.240488 456.3291,64.584208 C 458.34728,66.927988 460.36551,70.150638 462.38379,74.252178 L 472.39355,94.174058 L 461.79785,94.174058 L 452.47168,75.472878 C 450.06278,70.590098 447.71903,67.351168 445.44043,65.756088 C 443.1943,64.161068 440.11813,63.363538 436.21191,63.363508 L 425.46973,63.363508 L 425.46973,94.174058 L 415.60645,94.174058 L 415.60645,21.273668 L 437.87207,21.273668 C 446.20536,21.273738 452.42281,23.015268 456.52441,26.498278 C 460.62592,29.981408 462.6767,35.238568 462.67676,42.269758 C 462.6767,46.859648 461.60248,50.668238 459.4541,53.695538 C 457.33816,56.722918 454.24572,58.822528 450.17676,59.994368 M 425.46973,29.379128 L 425.46973,55.258038 L 437.87207,55.258038 C 442.62464,55.258078 446.20536,54.167588 448.61426,51.986558 C 451.05562,49.773058 452.27632,46.534128 452.27637,42.269758 C 452.27632,38.005488 451.05562,34.799118 448.61426,32.650618 C 446.20536,30.469688 442.62464,29.379198 437.87207,29.379128 L 425.46973,29.379128"
       style="font-size:48px;font-style:normal;font-variant:normal;font-weight:normal;font-stretch:normal;text-align:start;line-height:100%;writing-mode:lr-tb;text-anchor:start;fill:#000000;fill-opacity:1;stroke:none;stroke-width:1px;stroke-linecap:butt;stroke-linejoin:miter;stroke-opacity:1;font-family:Bitstream Vera Sans"
       id="path4035" />
    <path
       d="M 354.17676,346.2705 C 356.29259,346.98668 358.34337,348.51662 360.3291,350.86034 C 362.34728,353.20412 364.3655,356.42677 366.38379,360.52831 L 376.39355,380.45019 L 365.79785,380.45019 L 356.47168,361.74901 C 354.06278,356.86623 351.71903,353.6273 349.44043,352.03222 C 347.1943,350.4372 344.11813,349.63967 340.21191,349.63964 L 329.46972,349.63964 L 329.46972,380.45019 L 319.60644,380.45019 L 319.60644,307.5498 L 341.87207,307.5498 C 350.20536,307.54987 356.4228,309.2914 360.52441,312.77441 C 364.62592,316.25754 366.6767,321.5147 366.67676,328.54589 C 366.6767,333.13578 365.60248,336.94437 363.4541,339.97167 C 361.33816,342.99905 358.24572,345.09866 354.17676,346.2705 M 329.46972,315.65526 L 329.46972,341.53417 L 341.87207,341.53417 C 346.62463,341.53421 350.20536,340.44372 352.61426,338.26269 C 355.05562,336.04919 356.27632,332.81026 356.27636,328.54589 C 356.27632,324.28162 355.05562,321.07525 352.61426,318.92675 C 350.20536,316.74582 346.62463,315.65533 341.87207,315.65526 L 329.46972,315.65526"
       style="font-size:48px;font-style:normal;font-variant:normal;font-weight:normal;font-stretch:normal;text-align:start;line-height:100%;writing-mode:lr-tb;text-anchor:start;fill:#000000;fill-opacity:1;stroke:none;stroke-width:1px;stroke-linecap:butt;stroke-linejoin:miter;stroke-opacity:1;font-family:Bitstream Vera Sans"
       id="path4037" />
    <path
       d="M 162.17676,155.60384 C 164.2926,156.32002 166.34338,157.84996 168.3291,160.19368 C 170.34728,162.53746 172.36551,165.7601 174.38379,169.86164 L 184.39355,189.78352 L 173.79785,189.78352 L 164.47168,171.08234 C 162.06278,166.19956 159.71903,162.96064 157.44043,161.36556 C 155.1943,159.77054 152.11813,158.97301 148.21191,158.97298 L 137.46973,158.97298 L 137.46973,189.78352 L 127.60645,189.78352 L 127.60645,116.88314 L 149.87207,116.88314 C 158.20536,116.88321 164.42281,118.62474 168.52441,122.10775 C 172.62592,125.59088 174.6767,130.84804 174.67676,137.87923 C 174.6767,142.46912 173.60248,146.27771 171.4541,149.30501 C 169.33816,152.33239 166.24572,154.432 162.17676,155.60384 M 137.46973,124.9886 L 137.46973,150.86751 L 149.87207,150.86751 C 154.62464,150.86755 158.20536,149.77706 160.61426,147.59603 C 163.05562,145.38253 164.27632,142.1436 164.27637,137.87923 C 164.27632,133.61496 163.05562,130.40859 160.61426,128.26009 C 158.20536,126.07916 154.62464,124.98867 149.87207,124.9886 L 137.46973,124.9886"
       style="font-size:48px;font-style:normal;font-variant:normal;font-weight:normal;font-stretch:normal;text-align:start;line-height:100%;writing-mode:lr-tb;text-anchor:start;fill:#000000;fill-opacity:1;stroke:none;stroke-width:1px;stroke-linecap:butt;stroke-linejoin:miter;stroke-opacity:1;font-family:Bitstream Vera Sans"
       id="path4039" />
    <path
       d="M 63.404295,315.12238 C 56.242804,315.12244 50.546196,317.79171 46.314451,323.13019 C 42.115214,328.46878 40.015607,335.74417 40.015623,344.95636 C 40.015607,354.13607 42.115214,361.39518 46.314451,366.7337 C 50.546196,372.07225 56.242804,374.74152 63.404295,374.74152 C 70.565707,374.74152 76.229764,372.07225 80.396482,366.7337 C 84.595641,361.39518 86.695248,354.13607 86.695311,344.95636 C 86.695248,335.74417 84.595641,328.46878 80.396482,323.13019 C 76.229764,317.79171 70.565707,315.12244 63.404295,315.12238 M 63.404295,307.11456 C 73.6256,307.11464 81.796164,310.54888 87.916014,317.4173 C 94.035735,324.25329 97.095628,333.43297 97.095701,344.95636 C 97.095628,356.44727 94.035735,365.62695 87.916014,372.49542 C 81.796164,379.33136 73.6256,382.74933 63.404295,382.74933 C 53.15036,382.74933 44.947243,379.33136 38.79492,372.49542 C 32.67512,365.6595 29.615227,356.47982 29.615232,344.95636 C 29.615227,333.43297 32.67512,324.25329 38.79492,317.4173 C 44.947243,310.54888 53.15036,307.11464 63.404295,307.11456"
       style="font-size:48px;font-style:normal;font-variant:normal;font-weight:normal;font-stretch:normal;text-align:start;line-height:100%;writing-mode:lr-tb;text-anchor:start;fill:#000000;fill-opacity:1;stroke:none;stroke-width:1px;stroke-linecap:butt;stroke-linejoin:miter;stroke-opacity:1;font-family:Bitstream Vera Sans"
       id="text4041" />
    <path
       d="M 152.04883,411.52377 C 144.88734,411.52383 139.19073,414.1931 134.95898,419.53158 C 130.75975,424.87017 128.66014,432.14556 128.66016,441.35775 C 128.66014,450.53746 130.75975,457.79657 134.95898,463.13509 C 139.19073,468.47364 144.88734,471.14291 152.04883,471.14291 C 159.21024,471.14291 164.8743,468.47364 169.04102,463.13509 C 173.24017,457.79657 175.33978,450.53746 175.33984,441.35775 C 175.33978,432.14556 173.24017,424.87017 169.04102,419.53158 C 164.8743,414.1931 159.21024,411.52383 152.04883,411.52377 M 152.04883,403.51595 C 162.27013,403.51603 170.4407,406.95027 176.56055,413.81869 C 182.68027,420.65468 185.74016,429.83436 185.74023,441.35775 C 185.74016,452.84866 182.68027,462.02834 176.56055,468.89681 C 170.4407,475.73275 162.27013,479.15072 152.04883,479.15072 C 141.79489,479.15072 133.59178,475.73275 127.43945,468.89681 C 121.31965,462.06089 118.25976,452.88121 118.25977,441.35775 C 118.25976,429.83436 121.31965,420.65468 127.43945,413.81869 C 133.59178,406.95027 141.79489,403.51603 152.04883,403.51595"
       style="font-size:48px;font-style:normal;font-variant:normal;font-weight:normal;font-stretch:normal;text-align:start;line-height:100%;writing-mode:lr-tb;text-anchor:start;fill:#000000;fill-opacity:1;stroke:none;stroke-width:1px;stroke-linecap:butt;stroke-linejoin:miter;stroke-opacity:1;font-family:Bitstream Vera Sans"
       id="path4046" />
    <path
       d="M 441.57743,123.4429 C 434.41594,123.44296 428.71933,126.11223 424.48758,131.45071 C 420.28835,136.7893 418.18874,144.06469 418.18876,153.27688 C 418.18874,162.45659 420.28835,169.7157 424.48758,175.05422 C 428.71933,180.39277 434.41594,183.06204 441.57743,183.06204 C 448.73884,183.06204 454.4029,180.39277 458.56962,175.05422 C 462.76877,169.7157 464.86838,162.45659 464.86844,153.27688 C 464.86838,144.06469 462.76877,136.7893 458.56962,131.45071 C 454.4029,126.11223 448.73884,123.44296 441.57743,123.4429 M 441.57743,115.43508 C 451.79873,115.43516 459.9693,118.8694 466.08915,125.73782 C 472.20887,132.57381 475.26876,141.75349 475.26883,153.27688 C 475.26876,164.76779 472.20887,173.94747 466.08915,180.81594 C 459.9693,187.65188 451.79873,191.06985 441.57743,191.06985 C 431.32349,191.06985 423.12038,187.65188 416.96805,180.81594 C 410.84825,173.98002 407.78836,164.80034 407.78837,153.27688 C 407.78836,141.75349 410.84825,132.57381 416.96805,125.73782 C 423.12038,118.8694 431.32349,115.43516 441.57743,115.43508"
       style="font-size:48px;font-style:normal;font-variant:normal;font-weight:normal;font-stretch:normal;text-align:start;line-height:100%;writing-mode:lr-tb;text-anchor:start;fill:#000000;fill-opacity:1;stroke:none;stroke-width:1px;stroke-linecap:butt;stroke-linejoin:miter;stroke-opacity:1;font-family:Bitstream Vera Sans"
       id="path4048" />
    <path
       d="M 350.71549,27.52377 C 343.554,27.52383 337.85739,30.1931 333.62565,35.53158 C 329.42641,40.87017 327.3268,48.14556 327.32682,57.35775 C 327.3268,66.53746 329.42641,73.79657 333.62565,79.13509 C 337.85739,84.47364 343.554,87.14291 350.71549,87.14291 C 357.8769,87.14291 363.54096,84.47364 367.70768,79.13509 C 371.90684,73.79657 374.00644,66.53746 374.00651,57.35775 C 374.00644,48.14556 371.90684,40.87017 367.70768,35.53158 C 363.54096,30.1931 357.8769,27.52383 350.71549,27.52377 M 350.71549,19.51595 C 360.9368,19.51603 369.10736,22.95027 375.22721,29.81869 C 381.34693,36.65468 384.40682,45.83436 384.4069,57.35775 C 384.40682,68.84866 381.34693,78.02834 375.22721,84.89681 C 369.10736,91.73275 360.9368,95.15072 350.71549,95.15072 C 340.46156,95.15072 332.25844,91.73275 326.10612,84.89681 C 319.98632,78.06089 316.92642,68.88121 316.92643,57.35775 C 316.92642,45.83436 319.98632,36.65468 326.10612,29.81869 C 332.25844,22.95027 340.46156,19.51603 350.71549,19.51595"
       style="font-size:48px;font-style:normal;font-variant:normal;font-weight:normal;font-stretch:normal;text-align:start;line-height:100%;writing-mode:lr-tb;text-anchor:start;fill:#000000;fill-opacity:1;stroke:none;stroke-width:1px;stroke-linecap:butt;stroke-linejoin:miter;stroke-opacity:1;font-family:Bitstream Vera Sans"
       id="path4050" />
    <path
       d="M 143.67774,316.53841 L 143.67774,343.93099 L 156.08008,343.93099 C 160.66989,343.93102 164.21806,342.74287 166.72461,340.36653 C 169.23108,337.99027 170.48433,334.60486 170.48438,330.21028 C 170.48433,325.84836 169.23108,322.47922 166.72461,320.10286 C 164.21806,317.72662 160.66989,316.53847 156.08008,316.53841 L 143.67774,316.53841 M 133.81445,308.43294 L 156.08008,308.43294 C 164.25061,308.43301 170.41923,310.28848 174.58594,313.99935 C 178.7851,317.67779 180.88471,323.08144 180.88477,330.21028 C 180.88471,337.40434 178.7851,342.84053 174.58594,346.51888 C 170.41923,350.19729 164.25061,352.03648 156.08008,352.03645 L 143.67774,352.03645 L 143.67774,381.33333 L 133.81445,381.33333 L 133.81445,308.43294"
       style="font-size:48px;font-style:normal;font-variant:normal;font-weight:normal;font-stretch:normal;text-align:start;line-height:100%;writing-mode:lr-tb;text-anchor:start;fill:#000000;fill-opacity:1;stroke:none;stroke-width:1px;stroke-linecap:butt;stroke-linejoin:miter;stroke-opacity:1;font-family:Bitstream Vera Sans"
       id="text4052" />
    <path
       d="M 339.66147,124.98861 L 339.66147,152.38119 L 352.06381,152.38119 C 356.65362,152.38122 360.20179,151.19307 362.70834,148.81673 C 365.21481,146.44047 366.46806,143.05506 366.46811,138.66048 C 366.46806,134.29856 365.21481,130.92942 362.70834,128.55306 C 360.20179,126.17682 356.65362,124.98867 352.06381,124.98861 L 339.66147,124.98861 M 329.79818,116.88314 L 352.06381,116.88314 C 360.23434,116.88321 366.40296,118.73868 370.56967,122.44955 C 374.76883,126.12799 376.86844,131.53164 376.8685,138.66048 C 376.86844,145.85454 374.76883,151.29073 370.56967,154.96908 C 366.40296,158.64749 360.23434,160.48668 352.06381,160.48665 L 339.66147,160.48665 L 339.66147,189.78353 L 329.79818,189.78353 L 329.79818,116.88314"
       style="font-size:48px;font-style:normal;font-variant:normal;font-weight:normal;font-stretch:normal;text-align:start;line-height:100%;writing-mode:lr-tb;text-anchor:start;fill:#000000;fill-opacity:1;stroke:none;stroke-width:1px;stroke-linecap:butt;stroke-linejoin:miter;stroke-opacity:1;font-family:Bitstream Vera Sans"
       id="path4057" />
    <path
       d="M 222.28585,213.45665 L 235.5671,213.45665 L 267.89132,274.44297 L 267.89132,213.45665 L 277.46163,213.45665 L 277.46163,286.35704 L 264.18038,286.35704 L 231.85617,225.37071 L 231.85617,286.35704 L 222.28585,286.35704 L 222.28585,213.45665"
       style="font-size:48px;font-style:normal;font-variant:normal;font-weight:normal;font-stretch:normal;text-align:start;line-height:100%;writing-mode:lr-tb;text-anchor:start;fill:#ff0000;fill-opacity:1;stroke:none;stroke-width:1px;stroke-linecap:butt;stroke-linejoin:miter;stroke-opacity:1;font-family:Bitstream Vera Sans"
       id="text4059" />
  </g>
</svg>
